<mxfile host="app.diagrams.net" agent="Mozilla/5.0 (Windows NT 10.0; Win64; x64) AppleWebKit/537.36 (KHTML, like Gecko) Chrome/133.0.0.0 Safari/537.36" version="26.0.11">
  <diagram name="第 1 页" id="918m5Z8dmw1aykf9dMs7">
    <mxGraphModel dx="2261" dy="746" grid="1" gridSize="10" guides="1" tooltips="1" connect="1" arrows="1" fold="1" page="1" pageScale="1" pageWidth="827" pageHeight="1169" math="0" shadow="0">
      <root>
        <mxCell id="0" />
        <mxCell id="1" parent="0" />
        <mxCell id="m40DJFB_CsNasQkl1GDJ-1" value="" style="whiteSpace=wrap;html=1;fillColor=#f0a30a;fontColor=#000000;strokeColor=#BD7000;" vertex="1" parent="1">
          <mxGeometry x="-145" y="180" width="290" height="390" as="geometry" />
        </mxCell>
        <mxCell id="m40DJFB_CsNasQkl1GDJ-2" value="Job" style="ellipse;whiteSpace=wrap;html=1;fillColor=#d5e8d4;strokeColor=#82b366;fontSize=16;" vertex="1" parent="1">
          <mxGeometry x="-60" y="220" width="120" height="80" as="geometry" />
        </mxCell>
        <mxCell id="m40DJFB_CsNasQkl1GDJ-3" value="Job" style="ellipse;whiteSpace=wrap;html=1;fillColor=#d5e8d4;strokeColor=#82b366;fontSize=16;" vertex="1" parent="1">
          <mxGeometry x="-60" y="400" width="120" height="80" as="geometry" />
        </mxCell>
        <mxCell id="m40DJFB_CsNasQkl1GDJ-4" value="" style="whiteSpace=wrap;html=1;fillColor=#f0a30a;fontColor=#000000;strokeColor=#BD7000;" vertex="1" parent="1">
          <mxGeometry x="370" y="168" width="350" height="390" as="geometry" />
        </mxCell>
        <mxCell id="m40DJFB_CsNasQkl1GDJ-6" value="" style="shape=table;startSize=0;container=1;collapsible=0;childLayout=tableLayout;fontSize=16;fillColor=#fad7ac;strokeColor=#b46504;" vertex="1" parent="1">
          <mxGeometry x="414" y="220" width="260" height="60" as="geometry" />
        </mxCell>
        <mxCell id="m40DJFB_CsNasQkl1GDJ-7" value="" style="shape=tableRow;horizontal=0;startSize=0;swimlaneHead=0;swimlaneBody=0;strokeColor=inherit;top=0;left=0;bottom=0;right=0;collapsible=0;dropTarget=0;fillColor=none;points=[[0,0.5],[1,0.5]];portConstraint=eastwest;fontSize=16;" vertex="1" parent="m40DJFB_CsNasQkl1GDJ-6">
          <mxGeometry width="260" height="60" as="geometry" />
        </mxCell>
        <mxCell id="m40DJFB_CsNasQkl1GDJ-8" value="" style="shape=partialRectangle;html=1;whiteSpace=wrap;connectable=0;strokeColor=inherit;overflow=hidden;fillColor=none;top=0;left=0;bottom=0;right=0;pointerEvents=1;fontSize=16;" vertex="1" parent="m40DJFB_CsNasQkl1GDJ-7">
          <mxGeometry width="52" height="60" as="geometry">
            <mxRectangle width="52" height="60" as="alternateBounds" />
          </mxGeometry>
        </mxCell>
        <mxCell id="m40DJFB_CsNasQkl1GDJ-9" value="" style="shape=partialRectangle;html=1;whiteSpace=wrap;connectable=0;strokeColor=inherit;overflow=hidden;fillColor=none;top=0;left=0;bottom=0;right=0;pointerEvents=1;fontSize=16;" vertex="1" parent="m40DJFB_CsNasQkl1GDJ-7">
          <mxGeometry x="52" width="54" height="60" as="geometry">
            <mxRectangle width="54" height="60" as="alternateBounds" />
          </mxGeometry>
        </mxCell>
        <mxCell id="m40DJFB_CsNasQkl1GDJ-10" value="" style="shape=partialRectangle;html=1;whiteSpace=wrap;connectable=0;strokeColor=inherit;overflow=hidden;fillColor=none;top=0;left=0;bottom=0;right=0;pointerEvents=1;fontSize=16;" vertex="1" parent="m40DJFB_CsNasQkl1GDJ-7">
          <mxGeometry x="106" width="50" height="60" as="geometry">
            <mxRectangle width="50" height="60" as="alternateBounds" />
          </mxGeometry>
        </mxCell>
        <mxCell id="m40DJFB_CsNasQkl1GDJ-19" style="shape=partialRectangle;html=1;whiteSpace=wrap;connectable=0;strokeColor=inherit;overflow=hidden;fillColor=none;top=0;left=0;bottom=0;right=0;pointerEvents=1;fontSize=16;" vertex="1" parent="m40DJFB_CsNasQkl1GDJ-7">
          <mxGeometry x="156" width="52" height="60" as="geometry">
            <mxRectangle width="52" height="60" as="alternateBounds" />
          </mxGeometry>
        </mxCell>
        <mxCell id="m40DJFB_CsNasQkl1GDJ-20" style="shape=partialRectangle;html=1;whiteSpace=wrap;connectable=0;strokeColor=inherit;overflow=hidden;fillColor=none;top=0;left=0;bottom=0;right=0;pointerEvents=1;fontSize=16;" vertex="1" parent="m40DJFB_CsNasQkl1GDJ-7">
          <mxGeometry x="208" width="52" height="60" as="geometry">
            <mxRectangle width="52" height="60" as="alternateBounds" />
          </mxGeometry>
        </mxCell>
        <mxCell id="m40DJFB_CsNasQkl1GDJ-21" value="" style="shape=table;startSize=0;container=1;collapsible=0;childLayout=tableLayout;fontSize=16;fillColor=#fad9d5;strokeColor=#ae4132;" vertex="1" parent="1">
          <mxGeometry x="415" y="340" width="260" height="60" as="geometry" />
        </mxCell>
        <mxCell id="m40DJFB_CsNasQkl1GDJ-22" value="" style="shape=tableRow;horizontal=0;startSize=0;swimlaneHead=0;swimlaneBody=0;strokeColor=inherit;top=0;left=0;bottom=0;right=0;collapsible=0;dropTarget=0;fillColor=none;points=[[0,0.5],[1,0.5]];portConstraint=eastwest;fontSize=16;" vertex="1" parent="m40DJFB_CsNasQkl1GDJ-21">
          <mxGeometry width="260" height="60" as="geometry" />
        </mxCell>
        <mxCell id="m40DJFB_CsNasQkl1GDJ-23" value="" style="shape=partialRectangle;html=1;whiteSpace=wrap;connectable=0;strokeColor=inherit;overflow=hidden;fillColor=none;top=0;left=0;bottom=0;right=0;pointerEvents=1;fontSize=16;" vertex="1" parent="m40DJFB_CsNasQkl1GDJ-22">
          <mxGeometry width="52" height="60" as="geometry">
            <mxRectangle width="52" height="60" as="alternateBounds" />
          </mxGeometry>
        </mxCell>
        <mxCell id="m40DJFB_CsNasQkl1GDJ-24" value="" style="shape=partialRectangle;html=1;whiteSpace=wrap;connectable=0;strokeColor=inherit;overflow=hidden;fillColor=none;top=0;left=0;bottom=0;right=0;pointerEvents=1;fontSize=16;" vertex="1" parent="m40DJFB_CsNasQkl1GDJ-22">
          <mxGeometry x="52" width="52" height="60" as="geometry">
            <mxRectangle width="52" height="60" as="alternateBounds" />
          </mxGeometry>
        </mxCell>
        <mxCell id="m40DJFB_CsNasQkl1GDJ-25" value="" style="shape=partialRectangle;html=1;whiteSpace=wrap;connectable=0;strokeColor=inherit;overflow=hidden;fillColor=none;top=0;left=0;bottom=0;right=0;pointerEvents=1;fontSize=16;" vertex="1" parent="m40DJFB_CsNasQkl1GDJ-22">
          <mxGeometry x="104" width="52" height="60" as="geometry">
            <mxRectangle width="52" height="60" as="alternateBounds" />
          </mxGeometry>
        </mxCell>
        <mxCell id="m40DJFB_CsNasQkl1GDJ-26" style="shape=partialRectangle;html=1;whiteSpace=wrap;connectable=0;strokeColor=inherit;overflow=hidden;fillColor=none;top=0;left=0;bottom=0;right=0;pointerEvents=1;fontSize=16;" vertex="1" parent="m40DJFB_CsNasQkl1GDJ-22">
          <mxGeometry x="156" width="52" height="60" as="geometry">
            <mxRectangle width="52" height="60" as="alternateBounds" />
          </mxGeometry>
        </mxCell>
        <mxCell id="m40DJFB_CsNasQkl1GDJ-27" style="shape=partialRectangle;html=1;whiteSpace=wrap;connectable=0;strokeColor=inherit;overflow=hidden;fillColor=none;top=0;left=0;bottom=0;right=0;pointerEvents=1;fontSize=16;" vertex="1" parent="m40DJFB_CsNasQkl1GDJ-22">
          <mxGeometry x="208" width="52" height="60" as="geometry">
            <mxRectangle width="52" height="60" as="alternateBounds" />
          </mxGeometry>
        </mxCell>
        <mxCell id="m40DJFB_CsNasQkl1GDJ-28" value="" style="shape=table;startSize=0;container=1;collapsible=0;childLayout=tableLayout;fontSize=16;fillColor=#b1ddf0;strokeColor=#10739e;" vertex="1" parent="1">
          <mxGeometry x="415" y="450" width="260" height="60" as="geometry" />
        </mxCell>
        <mxCell id="m40DJFB_CsNasQkl1GDJ-29" value="" style="shape=tableRow;horizontal=0;startSize=0;swimlaneHead=0;swimlaneBody=0;strokeColor=inherit;top=0;left=0;bottom=0;right=0;collapsible=0;dropTarget=0;fillColor=none;points=[[0,0.5],[1,0.5]];portConstraint=eastwest;fontSize=16;" vertex="1" parent="m40DJFB_CsNasQkl1GDJ-28">
          <mxGeometry width="260" height="60" as="geometry" />
        </mxCell>
        <mxCell id="m40DJFB_CsNasQkl1GDJ-30" value="" style="shape=partialRectangle;html=1;whiteSpace=wrap;connectable=0;strokeColor=inherit;overflow=hidden;fillColor=none;top=0;left=0;bottom=0;right=0;pointerEvents=1;fontSize=16;" vertex="1" parent="m40DJFB_CsNasQkl1GDJ-29">
          <mxGeometry width="52" height="60" as="geometry">
            <mxRectangle width="52" height="60" as="alternateBounds" />
          </mxGeometry>
        </mxCell>
        <mxCell id="m40DJFB_CsNasQkl1GDJ-31" value="" style="shape=partialRectangle;html=1;whiteSpace=wrap;connectable=0;strokeColor=inherit;overflow=hidden;fillColor=none;top=0;left=0;bottom=0;right=0;pointerEvents=1;fontSize=16;" vertex="1" parent="m40DJFB_CsNasQkl1GDJ-29">
          <mxGeometry x="52" width="52" height="60" as="geometry">
            <mxRectangle width="52" height="60" as="alternateBounds" />
          </mxGeometry>
        </mxCell>
        <mxCell id="m40DJFB_CsNasQkl1GDJ-32" value="" style="shape=partialRectangle;html=1;whiteSpace=wrap;connectable=0;strokeColor=inherit;overflow=hidden;fillColor=none;top=0;left=0;bottom=0;right=0;pointerEvents=1;fontSize=16;" vertex="1" parent="m40DJFB_CsNasQkl1GDJ-29">
          <mxGeometry x="104" width="52" height="60" as="geometry">
            <mxRectangle width="52" height="60" as="alternateBounds" />
          </mxGeometry>
        </mxCell>
        <mxCell id="m40DJFB_CsNasQkl1GDJ-33" style="shape=partialRectangle;html=1;whiteSpace=wrap;connectable=0;strokeColor=inherit;overflow=hidden;fillColor=none;top=0;left=0;bottom=0;right=0;pointerEvents=1;fontSize=16;" vertex="1" parent="m40DJFB_CsNasQkl1GDJ-29">
          <mxGeometry x="156" width="52" height="60" as="geometry">
            <mxRectangle width="52" height="60" as="alternateBounds" />
          </mxGeometry>
        </mxCell>
        <mxCell id="m40DJFB_CsNasQkl1GDJ-34" style="shape=partialRectangle;html=1;whiteSpace=wrap;connectable=0;strokeColor=inherit;overflow=hidden;fillColor=none;top=0;left=0;bottom=0;right=0;pointerEvents=1;fontSize=16;" vertex="1" parent="m40DJFB_CsNasQkl1GDJ-29">
          <mxGeometry x="208" width="52" height="60" as="geometry">
            <mxRectangle width="52" height="60" as="alternateBounds" />
          </mxGeometry>
        </mxCell>
        <mxCell id="m40DJFB_CsNasQkl1GDJ-35" value="内容任务平台" style="text;html=1;align=center;verticalAlign=middle;resizable=0;points=[];autosize=1;strokeColor=none;fillColor=none;fontSize=16;" vertex="1" parent="1">
          <mxGeometry x="110" y="138" width="120" height="30" as="geometry" />
        </mxCell>
        <mxCell id="m40DJFB_CsNasQkl1GDJ-36" value="" style="endArrow=classic;html=1;rounded=0;entryX=-0.015;entryY=0.75;entryDx=0;entryDy=0;entryPerimeter=0;exitX=0.997;exitY=0.226;exitDx=0;exitDy=0;exitPerimeter=0;" edge="1" parent="1" source="m40DJFB_CsNasQkl1GDJ-1" target="m40DJFB_CsNasQkl1GDJ-7">
          <mxGeometry width="50" height="50" relative="1" as="geometry">
            <mxPoint x="179.9999999999999" y="251.05000000000004" as="sourcePoint" />
            <mxPoint x="448.13" y="248.95000000000002" as="targetPoint" />
          </mxGeometry>
        </mxCell>
        <mxCell id="m40DJFB_CsNasQkl1GDJ-39" value="" style="endArrow=classic;html=1;rounded=0;entryX=0.012;entryY=0.617;entryDx=0;entryDy=0;entryPerimeter=0;exitX=1;exitY=0.79;exitDx=0;exitDy=0;exitPerimeter=0;" edge="1" parent="1" source="m40DJFB_CsNasQkl1GDJ-1" target="m40DJFB_CsNasQkl1GDJ-29">
          <mxGeometry width="50" height="50" relative="1" as="geometry">
            <mxPoint x="160" y="480" as="sourcePoint" />
            <mxPoint x="290" y="440" as="targetPoint" />
          </mxGeometry>
        </mxCell>
        <mxCell id="m40DJFB_CsNasQkl1GDJ-42" value="" style="endArrow=classic;html=1;rounded=0;exitX=1;exitY=0.5;exitDx=0;exitDy=0;entryX=0;entryY=0.5;entryDx=0;entryDy=0;" edge="1" parent="1" source="m40DJFB_CsNasQkl1GDJ-1" target="m40DJFB_CsNasQkl1GDJ-22">
          <mxGeometry width="50" height="50" relative="1" as="geometry">
            <mxPoint x="220" y="380" as="sourcePoint" />
            <mxPoint x="270" y="330" as="targetPoint" />
          </mxGeometry>
        </mxCell>
        <mxCell id="m40DJFB_CsNasQkl1GDJ-49" value="内容解析平台" style="text;html=1;align=center;verticalAlign=middle;resizable=0;points=[];autosize=1;strokeColor=none;fillColor=none;fontSize=16;" vertex="1" parent="1">
          <mxGeometry x="460" y="128" width="120" height="30" as="geometry" />
        </mxCell>
        <mxCell id="m40DJFB_CsNasQkl1GDJ-50" value="高优线程池" style="text;html=1;align=center;verticalAlign=middle;whiteSpace=wrap;rounded=0;fontSize=16;" vertex="1" parent="1">
          <mxGeometry x="460" y="180" width="133" height="30" as="geometry" />
        </mxCell>
        <mxCell id="m40DJFB_CsNasQkl1GDJ-51" value="中优线程池" style="text;html=1;align=center;verticalAlign=middle;whiteSpace=wrap;rounded=0;fontSize=16;" vertex="1" parent="1">
          <mxGeometry x="460" y="300" width="133" height="30" as="geometry" />
        </mxCell>
        <mxCell id="m40DJFB_CsNasQkl1GDJ-52" value="低优线程池" style="text;html=1;align=center;verticalAlign=middle;whiteSpace=wrap;rounded=0;fontSize=16;" vertex="1" parent="1">
          <mxGeometry x="460" y="410" width="133" height="30" as="geometry" />
        </mxCell>
        <mxCell id="m40DJFB_CsNasQkl1GDJ-53" value="主网站A" style="rounded=0;whiteSpace=wrap;html=1;fillColor=#fad7ac;strokeColor=#b46504;" vertex="1" parent="1">
          <mxGeometry x="910" y="128" width="120" height="60" as="geometry" />
        </mxCell>
        <mxCell id="m40DJFB_CsNasQkl1GDJ-55" value="主网站B" style="rounded=0;whiteSpace=wrap;html=1;fillColor=#fad9d5;strokeColor=#ae4132;" vertex="1" parent="1">
          <mxGeometry x="910" y="240" width="120" height="60" as="geometry" />
        </mxCell>
        <mxCell id="m40DJFB_CsNasQkl1GDJ-56" style="edgeStyle=orthogonalEdgeStyle;rounded=0;orthogonalLoop=1;jettySize=auto;html=1;entryX=0;entryY=0.5;entryDx=0;entryDy=0;" edge="1" parent="1" source="m40DJFB_CsNasQkl1GDJ-22" target="m40DJFB_CsNasQkl1GDJ-55">
          <mxGeometry relative="1" as="geometry">
            <Array as="points">
              <mxPoint x="793" y="370" />
              <mxPoint x="793" y="270" />
              <mxPoint x="910" y="270" />
            </Array>
          </mxGeometry>
        </mxCell>
        <mxCell id="m40DJFB_CsNasQkl1GDJ-57" value="次网站C" style="rounded=0;whiteSpace=wrap;html=1;fillColor=#b1ddf0;strokeColor=#10739e;" vertex="1" parent="1">
          <mxGeometry x="910" y="365" width="120" height="60" as="geometry" />
        </mxCell>
        <mxCell id="m40DJFB_CsNasQkl1GDJ-58" value="次网站C" style="rounded=0;whiteSpace=wrap;html=1;fillColor=#b1ddf0;strokeColor=#10739e;" vertex="1" parent="1">
          <mxGeometry x="910" y="475" width="120" height="60" as="geometry" />
        </mxCell>
        <mxCell id="m40DJFB_CsNasQkl1GDJ-59" value="次网站C" style="rounded=0;whiteSpace=wrap;html=1;fillColor=#b1ddf0;strokeColor=#10739e;" vertex="1" parent="1">
          <mxGeometry x="910" y="585" width="120" height="60" as="geometry" />
        </mxCell>
        <mxCell id="m40DJFB_CsNasQkl1GDJ-61" style="edgeStyle=orthogonalEdgeStyle;rounded=0;orthogonalLoop=1;jettySize=auto;html=1;entryX=0;entryY=0.5;entryDx=0;entryDy=0;" edge="1" parent="1" source="m40DJFB_CsNasQkl1GDJ-29" target="m40DJFB_CsNasQkl1GDJ-57">
          <mxGeometry relative="1" as="geometry" />
        </mxCell>
        <mxCell id="m40DJFB_CsNasQkl1GDJ-62" style="edgeStyle=orthogonalEdgeStyle;rounded=0;orthogonalLoop=1;jettySize=auto;html=1;" edge="1" parent="1" source="m40DJFB_CsNasQkl1GDJ-29" target="m40DJFB_CsNasQkl1GDJ-58">
          <mxGeometry relative="1" as="geometry" />
        </mxCell>
        <mxCell id="m40DJFB_CsNasQkl1GDJ-63" style="edgeStyle=orthogonalEdgeStyle;rounded=0;orthogonalLoop=1;jettySize=auto;html=1;entryX=0;entryY=0.5;entryDx=0;entryDy=0;" edge="1" parent="1" source="m40DJFB_CsNasQkl1GDJ-29" target="m40DJFB_CsNasQkl1GDJ-59">
          <mxGeometry relative="1" as="geometry" />
        </mxCell>
        <mxCell id="m40DJFB_CsNasQkl1GDJ-64" value="入库" style="shape=cylinder3;whiteSpace=wrap;html=1;boundedLbl=1;backgroundOutline=1;size=15;direction=south;fillColor=#ffcd28;strokeColor=#d79b00;gradientColor=#ffa500;" vertex="1" parent="1">
          <mxGeometry x="500" y="660" width="80" height="60" as="geometry" />
        </mxCell>
        <mxCell id="m40DJFB_CsNasQkl1GDJ-65" style="edgeStyle=orthogonalEdgeStyle;rounded=0;orthogonalLoop=1;jettySize=auto;html=1;entryX=0.667;entryY=1;entryDx=0;entryDy=0;entryPerimeter=0;" edge="1" parent="1" source="m40DJFB_CsNasQkl1GDJ-4" target="m40DJFB_CsNasQkl1GDJ-64">
          <mxGeometry relative="1" as="geometry" />
        </mxCell>
        <mxCell id="m40DJFB_CsNasQkl1GDJ-66" style="edgeStyle=orthogonalEdgeStyle;rounded=0;orthogonalLoop=1;jettySize=auto;html=1;entryX=0;entryY=0.5;entryDx=0;entryDy=0;" edge="1" parent="1" source="m40DJFB_CsNasQkl1GDJ-7" target="m40DJFB_CsNasQkl1GDJ-53">
          <mxGeometry relative="1" as="geometry" />
        </mxCell>
      </root>
    </mxGraphModel>
  </diagram>
</mxfile>
